# xmcd CD database file
#
# Track frame offsets:
#	150
#	21434
#	37774
#	51929
#	76157
#	93680
#	118677
#	138560
#	160991
#	174758
#	197128
#	210727
#	229909
#	245688
#
# Disc length: 3954 seconds
#
# Revision: 0
# Processed by: cddbd v1.5.1PL0 Copyright (c) Steve Scherf et al.
# Submitted via: CDex 1.40Beta6
#
DISCID=be0f700e
DTITLE=Cooder Graw - Wake Up
DYEAR=1900
DGENRE=Country
TTITLE0=Clarksdale
TTITLE1=Lifetime Stand
TTITLE2=Wake Up
TTITLE3=That Girl Crystal
TTITLE4=He Ain't Ever Gonna Leave Her
TTITLE5=Ugly Angel
TTITLE6=Next to the Truth (Chiclets)
TTITLE7=Afraid of the Dark
TTITLE8=Tomorrow's Milk
TTITLE9=How Can I Sleep
TTITLE10=The End of the Road
TTITLE11=Dirty and Sober
TTITLE12=I Got Kids
TTITLE13=Many Moons
EXTD=
EXTT0=
EXTT1=
EXTT2=
EXTT3=
EXTT4=
EXTT5=
EXTT6=
EXTT7=
EXTT8=
EXTT9=
EXTT10=
EXTT11=
EXTT12=
EXTT13=
PLAYORDER=
